<svg width="16" height="16" viewBox="0 0 16 16" fill="none" xmlns="http://www.w3.org/2000/svg">
<path fill-rule="evenodd" clip-rule="evenodd" d="M13.5804 2.41371C12.8523 1.68529 11.9873 1.10808 11.0353 0.715293C10.0833 0.322506 9.06293 0.121904 8.03305 0.125036C3.71094 0.125036 0.1925 3.6259 0.190742 7.92972C0.188813 9.30016 0.550057 10.6466 1.2377 11.8321L0.125 15.875L4.28223 14.7898C5.43295 15.4132 6.72112 15.7395 8.02988 15.739H8.03305C12.3548 15.739 15.8729 12.2378 15.875 7.93429C15.8776 6.90793 15.6761 5.89129 15.2822 4.94353C14.8882 3.99577 14.3097 3.13582 13.5804 2.41371ZM8.03305 14.4217H8.03023C6.86353 14.422 5.71804 14.1098 4.71289 13.5175L4.47488 13.3768L2.00797 14.0209L2.66645 11.6271L2.51141 11.381C1.85904 10.3482 1.51341 9.15133 1.51473 7.92972C1.51473 4.35328 4.44008 1.4434 8.03551 1.4434C9.76027 1.44032 11.4156 2.12245 12.6375 3.33977C13.8594 4.55708 14.5477 6.20988 14.551 7.93465C14.5496 11.5114 11.6257 14.4217 8.03305 14.4217ZM11.6081 9.56343C11.4123 9.4657 10.4479 8.9939 10.2693 8.92886C10.0907 8.86383 9.95891 8.83113 9.82848 9.0266C9.69805 9.22207 9.32223 9.65941 9.20797 9.79125C9.09371 9.92308 8.97945 9.9375 8.78363 9.83976C8.58781 9.74203 7.95606 9.53636 7.20758 8.87191C6.62504 8.35476 6.23199 7.71633 6.11773 7.52121C6.00348 7.32609 6.10543 7.22027 6.20352 7.12324C6.29176 7.0357 6.39934 6.89543 6.49742 6.78152C6.59551 6.66761 6.6282 6.58605 6.69324 6.45597C6.75828 6.3259 6.72594 6.21199 6.67707 6.11461C6.6282 6.01722 6.23621 5.05711 6.07309 4.66652C5.91383 4.28613 5.75246 4.33781 5.63223 4.33183C5.51797 4.32621 5.38613 4.3248 5.25641 4.3248C5.15723 4.32738 5.05966 4.35038 4.96977 4.39236C4.87989 4.43434 4.79962 4.4944 4.73398 4.56879C4.55434 4.76425 4.04809 5.23675 4.04809 6.19582C4.04809 7.15488 4.75121 8.083 4.84824 8.21308C4.94527 8.34316 6.22988 10.313 8.19547 11.1578C8.56046 11.3141 8.93339 11.4511 9.31273 11.5684C9.78207 11.7168 10.2092 11.696 10.5467 11.6457C10.9232 11.5898 11.7069 11.1739 11.8696 10.7183C12.0324 10.2627 12.0328 9.87246 11.9839 9.79125C11.935 9.71004 11.8043 9.66082 11.6081 9.56343Z" fill="black"/>
</svg>
