<svg width="14" height="14" viewBox="0 0 14 14" fill="none" xmlns="http://www.w3.org/2000/svg">
<path fill-rule="evenodd" clip-rule="evenodd" d="M12.8148 1.49425C12.8796 1.42009 12.9292 1.33387 12.9608 1.24054C12.9923 1.1472 13.0051 1.04856 12.9986 0.950259C12.992 0.851956 12.9661 0.755913 12.9224 0.667612C12.8787 0.579311 12.818 0.500482 12.7439 0.435625C12.6697 0.370768 12.5835 0.321155 12.4902 0.289616C12.3968 0.258078 12.2982 0.245233 12.1999 0.251814C12.1016 0.258395 12.0055 0.284275 11.9172 0.327974C11.8289 0.371673 11.7501 0.432336 11.6852 0.5065L7.85275 4.8865L4.6 0.55C4.53014 0.456853 4.43955 0.38125 4.33541 0.32918C4.23127 0.277109 4.11643 0.25 4 0.25H1C0.860716 0.25 0.724184 0.288786 0.605702 0.362012C0.48722 0.435238 0.39147 0.54001 0.32918 0.66459C0.26689 0.789169 0.240522 0.928633 0.253031 1.06735C0.265539 1.20608 0.31643 1.33857 0.4 1.45L5.22775 7.8865L1.18525 12.5065C1.12039 12.5807 1.07078 12.6669 1.03924 12.7602C1.0077 12.8536 0.994858 12.9522 1.00144 13.0505C1.00802 13.1488 1.0339 13.2448 1.0776 13.3331C1.1213 13.4214 1.18196 13.5003 1.25613 13.5651C1.33029 13.63 1.4165 13.6796 1.50984 13.7111C1.60318 13.7427 1.70181 13.7555 1.80012 13.7489C1.89842 13.7424 1.99446 13.7165 2.08276 13.6728C2.17106 13.6291 2.24989 13.5684 2.31475 13.4943L6.14725 9.1135L9.4 13.45C9.46986 13.5431 9.56045 13.6187 9.66459 13.6708C9.76873 13.7229 9.88357 13.75 10 13.75H13C13.1393 13.75 13.2758 13.7112 13.3943 13.638C13.5128 13.5648 13.6085 13.46 13.6708 13.3354C13.7331 13.2108 13.7595 13.0714 13.747 12.9326C13.7345 12.7939 13.6836 12.6614 13.6 12.55L8.77225 6.1135L12.8148 1.49425ZM10.375 12.25L2.5 1.75H3.625L11.5 12.25H10.375Z" fill="black"/>
</svg>
